# xmcd CD database file
#
# Track frame offsets:
#	150
#	14909
#	24857
#	39090
#	51133
#	64325
#	72903
#	85825
#	95601
#	110920
#	123446
#	134274
#	143475
#	155425
#	162554
#	178014
#	186128
#	199771
#	213838
#	223597
#	230095
#	240065
#	252554
#
# Disc length: 3533 seconds
#
# Revision: 0
# Processed by: cddbd v1.5.1PL2 Copyright (c) Steve Scherf et al.
# Submitted via: CDex 1.51
#
DISCID=4a0dcb17
DTITLE=Light - Sultan The Lovesong is Forever Sofmap特典2 サウンドディスク
DYEAR=2002
DGENRE=Game
TTITLE0=fresh morning
TTITLE1=優雅なお茶会を・・・
TTITLE2=砂漠の涼風
TTITLE3=Let's play happily
TTITLE4=ネコとネズミの大合唱
TTITLE5=とほほ・・・
TTITLE6=My princess
TTITLE7=Would you dance together with me ?
TTITLE8=虹の架かる丘
TTITLE9=遙か彼方に臨む蜃気楼
TTITLE10=賑やかで、そして楽しく・・・
TTITLE11=優雅に鮮やかに
TTITLE12=幸せな微睡み
TTITLE13=ルキア王国
TTITLE14=崩れ去る日常
TTITLE15=異変
TTITLE16=虚無な瞳に空虚な心
TTITLE17=思い出のオルゴール
TTITLE18=Dreamlike happiness
TTITLE19=歴史の1ページ
TTITLE20=We love・・・
TTITLE21=祝福の月光
TTITLE22=すれ違う思い
EXTD=YEAR: 2002
EXTT0=
EXTT1=
EXTT2=
EXTT3=
EXTT4=
EXTT5=
EXTT6=
EXTT7=
EXTT8=
EXTT9=
EXTT10=
EXTT11=
EXTT12=
EXTT13=
EXTT14=
EXTT15=
EXTT16=
EXTT17=
EXTT18=
EXTT19=
EXTT20=
EXTT21=
EXTT22=
PLAYORDER=
